<svg style="position: absolute; width: 0; height: 0; overflow: hidden;" version="1.1" xmlns="http://www.w3.org/2000/svg" xmlns:xlink="http://www.w3.org/1999/xlink">
<defs>
<symbol id="google-plus" viewBox="0 0 512 512">
<title>google-plus</title>
<path d="M261.1 219.4v87.8h145.2c-5.9 37.7-43.9 110.4-145.2 110.4-87.4 0-158.7-72.4-158.7-161.6s71.3-161.6 158.7-161.6c49.7 0 83 21.2 102 39.5l69.5-66.9c-44.6-41.8-102.4-67-171.5-67-141.5 0-256 114.5-256 256s114.5 256 256 256c147.7 0 245.8-103.9 245.8-250.1 0-16.8-1.8-29.6-4-42.4l-241.8-0.1z"/>
</symbol>
<symbol id="facebook" viewBox="0 0 32 32">
<title>facebook</title>
<path d="M19 6h5v-6h-5c-3.86 0-7 3.14-7 7v3h-4v6h4v16h6v-16h5l1-6h-6v-3c0-0.542 0.458-1 1-1z"/>
</symbol>
<symbol id="twitter" viewBox="0 0 32 32">
<title>twitter</title>
<path d="M32 7.075c-1.175 0.525-2.444 0.875-3.769 1.031 1.356-0.813 2.394-2.1 2.887-3.631-1.269 0.75-2.675 1.3-4.169 1.594-1.2-1.275-2.906-2.069-4.794-2.069-3.625 0-6.563 2.938-6.563 6.563 0 0.512 0.056 1.012 0.169 1.494-5.456-0.275-10.294-2.888-13.531-6.862-0.563 0.969-0.887 2.1-0.887 3.3 0 2.275 1.156 4.287 2.919 5.463-1.075-0.031-2.087-0.331-2.975-0.819 0 0.025 0 0.056 0 0.081 0 3.181 2.263 5.838 5.269 6.437-0.55 0.15-1.131 0.231-1.731 0.231-0.425 0-0.831-0.044-1.237-0.119 0.838 2.606 3.263 4.506 6.131 4.563-2.25 1.762-5.075 2.813-8.156 2.813-0.531 0-1.050-0.031-1.569-0.094 2.913 1.869 6.362 2.95 10.069 2.95 12.075 0 18.681-10.006 18.681-18.681 0-0.287-0.006-0.569-0.019-0.85 1.281-0.919 2.394-2.075 3.275-3.394z"/>
</symbol>
<symbol id="youtube" viewBox="0 0 32 32">
<title>youtube</title>
<path d="M22.86,16a1,1,0,0,0-.54-1L13.18,9.4a1.09,1.09,0,0,0-1.16,0,1,1,0,0,0-.59,1V21.65a1,1,0,0,0,.59,1,1.25,1.25,0,0,0,.55.14,1,1,0,0,0,.61-.18L22.32,17A1,1,0,0,0,22.86,16ZM32,16q0,1.69,0,2.65t-.15,2.41a19.27,19.27,0,0,1-.4,2.6,4.12,4.12,0,0,1-1.23,2.17,3.78,3.78,0,0,1-2.21,1,118.42,118.42,0,0,1-12,.44,118.42,118.42,0,0,1-12-.44,3.83,3.83,0,0,1-2.22-1A4.09,4.09,0,0,1,.55,23.66a21.59,21.59,0,0,1-.38-2.6Q0,19.6,0,18.65T0,16q0-1.69,0-2.65t.15-2.41a19.27,19.27,0,0,1,.4-2.6A4.12,4.12,0,0,1,1.8,6.17,3.78,3.78,0,0,1,4,5.15a118.44,118.44,0,0,1,12-.44,118.44,118.44,0,0,1,12,.44,3.82,3.82,0,0,1,2.22,1,4.09,4.09,0,0,1,1.24,2.17,21.58,21.58,0,0,1,.38,2.6Q32,12.4,32,13.35T32,16Z"/>
</symbol>
<symbol id="linkedin" viewBox="0 0 32 32">
<title>linkedin</title>
<path d="M12 12h5.535v2.837h0.079c0.77-1.381 2.655-2.837 5.464-2.837 5.842 0 6.922 3.637 6.922 8.367v9.633h-5.769v-8.54c0-2.037-0.042-4.657-3.001-4.657-3.005 0-3.463 2.218-3.463 4.509v8.688h-5.767v-18z"/>
<path d="M2 12h6v18h-6v-18z"/>
<path d="M8 7c0 1.657-1.343 3-3 3s-3-1.343-3-3c0-1.657 1.343-3 3-3s3 1.343 3 3z"/>
</symbol>
</defs>
</svg>
